<?xml version="1.0" encoding="UTF-8" standalone="no"?><svg xmlns="http://www.w3.org/2000/svg" xmlns:xlink="http://www.w3.org/1999/xlink" contentScriptType="application/ecmascript" contentStyleType="text/css" height="168px" preserveAspectRatio="none" style="width:322px;height:168px;background:#FEFEFE;" version="1.1" viewBox="0 0 322 168" width="322px" zoomAndPan="magnify"><defs><filter height="300%" id="f1cgoct9zpmo59" width="300%" x="-1" y="-1"><feGaussianBlur result="blurOut" stdDeviation="2.0"/><feColorMatrix in="blurOut" result="blurOut2" type="matrix" values="0 0 0 0 0 0 0 0 0 0 0 0 0 0 0 0 0 0 .4 0"/><feOffset dx="4.0" dy="4.0" in="blurOut2" result="blurOut3"/><feBlend in="SourceGraphic" in2="blurOut3" mode="normal"/></filter></defs><g><!--entity inf--><rect fill="#FEFECE" filter="url(#f1cgoct9zpmo59)" height="36.2969" style="stroke: #A80036; stroke-width: 1.5;" width="85" x="6" y="8"/><rect fill="#FEFECE" height="5" style="stroke: #A80036; stroke-width: 1.5;" width="10" x="1" y="13"/><rect fill="#FEFECE" height="5" style="stroke: #A80036; stroke-width: 1.5;" width="10" x="1" y="34.2969"/><text fill="#000000" font-family="sans-serif" font-size="14" lengthAdjust="spacingAndGlyphs" textLength="65" x="16" y="30.9951">Inference</text><!--entity net--><rect fill="#FEFECE" filter="url(#f1cgoct9zpmo59)" height="36.2969" style="stroke: #A80036; stroke-width: 1.5;" width="77" x="129" y="8"/><rect fill="#FEFECE" height="5" style="stroke: #A80036; stroke-width: 1.5;" width="10" x="124" y="13"/><rect fill="#FEFECE" height="5" style="stroke: #A80036; stroke-width: 1.5;" width="10" x="124" y="34.2969"/><text fill="#000000" font-family="sans-serif" font-size="14" lengthAdjust="spacingAndGlyphs" textLength="57" x="139" y="30.9951">Network</text><!--entity buf--><rect fill="#FEFECE" filter="url(#f1cgoct9zpmo59)" height="36.2969" style="stroke: #A80036; stroke-width: 1.5;" width="61" x="137" y="121"/><rect fill="#FEFECE" height="5" style="stroke: #A80036; stroke-width: 1.5;" width="10" x="132" y="126"/><rect fill="#FEFECE" height="5" style="stroke: #A80036; stroke-width: 1.5;" width="10" x="132" y="147.2969"/><text fill="#000000" font-family="sans-serif" font-size="14" lengthAdjust="spacingAndGlyphs" textLength="41" x="147" y="143.9951">Buffer</text><!--entity dev--><rect fill="#FEFECE" filter="url(#f1cgoct9zpmo59)" height="36.2969" style="stroke: #A80036; stroke-width: 1.5;" width="67" x="244" y="121"/><rect fill="#FEFECE" height="5" style="stroke: #A80036; stroke-width: 1.5;" width="10" x="239" y="126"/><rect fill="#FEFECE" height="5" style="stroke: #A80036; stroke-width: 1.5;" width="10" x="239" y="147.2969"/><text fill="#000000" font-family="sans-serif" font-size="14" lengthAdjust="spacingAndGlyphs" textLength="47" x="254" y="143.9951">Device</text><!--link inf to net--><path d="M91.2656,26 C102.014,26 112.7624,26 123.5108,26 " fill="none" id="inf-net" style="stroke: #A80036; stroke-width: 1.0;"/><polygon fill="#A80036" points="128.7872,26,119.7872,22,123.7872,26,119.7872,30,128.7872,26" style="stroke: #A80036; stroke-width: 1.0;"/><!--link inf to buf--><path d="M51.77,44.1326 C55.1308,58.3191 61.6089,77.7906 73.5,91 C89.0965,108.3256 112.4057,120.2854 131.9103,127.9336 " fill="none" id="inf-buf" style="stroke: #A80036; stroke-width: 1.0;"/><polygon fill="#A80036" points="136.7801,129.7858,129.7901,122.8475,132.1067,128.0083,126.946,130.3249,136.7801,129.7858" style="stroke: #A80036; stroke-width: 1.0;"/><text fill="#000000" font-family="sans-serif" font-size="13" lengthAdjust="spacingAndGlyphs" textLength="81" x="74.5" y="87.0669">IFM and OFM</text><!--link net to dev--><path d="M206.4926,35.4978 C227.4666,42.6282 251.9451,54.5931 266.5,74 C275.351,85.8015 278.0778,102.1963 278.6036,115.5676 " fill="none" id="net-dev" style="stroke: #A80036; stroke-width: 1.0;"/><polygon fill="#A80036" points="278.7058,120.7148,282.5263,111.6371,278.6065,115.7158,274.5279,111.796,278.7058,120.7148" style="stroke: #A80036; stroke-width: 1.0;"/><!--link net to buf--><path d="M166.0926,44.2219 C165.4689,53.1847 164.8074,64.1523 164.5,74 C164.0682,87.8318 164.7366,103.3096 165.5511,115.691 " fill="none" id="net-buf" style="stroke: #A80036; stroke-width: 1.0;"/><polygon fill="#A80036" points="165.9063,120.794,169.2715,111.5379,165.559,115.8061,161.2909,112.0936,165.9063,120.794" style="stroke: #A80036; stroke-width: 1.0;"/><text fill="#000000" font-family="sans-serif" font-size="13" lengthAdjust="spacingAndGlyphs" textLength="96" x="165.5" y="87.0669">Network model</text><!--link buf to dev--><path d="M198.0078,139 C211.6511,139 225.2944,139 238.9377,139 " fill="none" id="buf-dev" style="stroke: #A80036; stroke-width: 1.0;"/><polygon fill="#A80036" points="243.9642,139,234.9642,135,238.9642,139,234.9642,143,243.9642,139" style="stroke: #A80036; stroke-width: 1.0;"/><!--
@startuml

skinparam backgroundColor #FEFEFE

[Inference] as inf
[Network] as net
[Buffer] as buf
[Device] as dev

inf -> net
inf -> buf: IFM and OFM

net - -> dev
net - -> buf: Network model

buf -> dev

@enduml

PlantUML version 1.2017.15(Mon Jul 03 18:45:34 CEST 2017)
(GPL source distribution)
Java Runtime: OpenJDK Runtime Environment
JVM: OpenJDK 64-Bit Server VM
Java Version: 11.0.11+9-Ubuntu-0ubuntu2.18.04
Operating System: Linux
OS Version: 5.4.0-73-generic
Default Encoding: UTF-8
Language: en
Country: US
--></g></svg>